<svg id="Layer_1" data-name="Layer 1" xmlns="http://www.w3.org/2000/svg" viewBox="0 0 960 960"><defs><style>.cls-1{fill:#f6eb16;}</style></defs><path class="cls-1" d="M631.69,131.85c-265.1,0-480,214.9-480,480s214.9,480,480,480,480-214.91,480-480S896.79,131.85,631.69,131.85Zm-.63,839.22c-201.28,0-364.44-163.16-364.44-364.44S429.78,242.18,631.06,242.18,995.51,405.35,995.51,606.63,832.34,971.07,631.06,971.07Z" transform="translate(-151.69 -131.85)"/><path class="cls-1" d="M853.63,660.23c-16,108.58-109.34,192-222.37,192.06l.11,74.62h.16c152.27,0,277.58-114.8,294.49-262.53Z" transform="translate(-151.69 -131.85)"/></svg>